<?xml version="1.0"?>
<svg version="1.1" xmlns="http://www.w3.org/2000/svg" xmlns:xlink="http://www.w3.org/1999/xlink" width="674.715" height="672.056">
    <desc iVinci="yes" version="4.6" gridStep="20" showGrid="no" snapToGrid="no" codePlatform="0"/>
    <g id="Layer1" name="Layer 2" opacity="1">
        <g id="Shape1">
            <desc shapeID="1" type="0" basicInfo-basicType="1" basicInfo-roundedRectRadius="12" basicInfo-polygonSides="6" basicInfo-starPoints="5" bounding="rect(-355.5,-356,711,712)" text="" font-familyName="Helvetica" font-pixelSize="175" font-bold="0" font-underline="0" font-alignment="1" strokeStyle="0" markerStart="0" markerEnd="0" shadowEnabled="0" shadowOffsetX="0" shadowOffsetY="2" shadowBlur="4" shadowOpacity="160" blurEnabled="0" blurRadius="4" transform="matrix(1,0,0,1,337,341.5)" pers-center="0,0" pers-size="0,0" pers-start="0,0" pers-end="0,0" locked="0" mesh="" flag=""/>
            <path id="shapePath1" d="M-18.5,-14.5 L692.5,-14.5 L692.5,697.5 L-18.5,697.5 L-18.5,-14.5 Z" style="stroke:none;fill-rule:evenodd;fill:#050236;fill-opacity:1;"/>
        </g>
    </g>
    <g id="Layer2" name="Layer 1" opacity="1">
        <g id="Shape2">
            <desc shapeID="2" type="0" basicInfo-basicType="0" basicInfo-roundedRectRadius="12" basicInfo-polygonSides="6" basicInfo-starPoints="5" bounding="rect(-328.203,-164.102,656.407,328.203)" text="" font-familyName="" font-pixelSize="20" font-bold="0" font-underline="0" font-alignment="1" strokeStyle="0" markerStart="0" markerEnd="0" shadowEnabled="0" shadowOffsetX="0" shadowOffsetY="2" shadowBlur="4" shadowOpacity="160" blurEnabled="0" blurRadius="4" transform="matrix(0.285504,0,0,0.29484,337,48.3837)" pers-center="0,0" pers-size="0,0" pers-start="0,0" pers-end="0,0" locked="0" mesh="" flag=""/>
            <path id="shapePath2" d="M430.703,96.7672 C430.703,43.3243 388.751,0 337,0 C285.249,0 243.297,43.3243 243.297,96.7672 " style="stroke:#000000;stroke-opacity:1;stroke-width:7.1;stroke-linejoin:miter;stroke-miterlimit:2;stroke-linecap:butt;fill-rule:evenodd;fill:#800000;fill-opacity:1;"/>
        </g>
        <g id="Shape3">
            <desc shapeID="3" type="0" basicInfo-basicType="0" basicInfo-roundedRectRadius="12" basicInfo-polygonSides="6" basicInfo-starPoints="5" bounding="rect(-328.062,-164.032,656.125,328.063)" text="" font-familyName="" font-pixelSize="20" font-bold="0" font-underline="0" font-alignment="1" strokeStyle="0" markerStart="0" markerEnd="0" shadowEnabled="0" shadowOffsetX="0" shadowOffsetY="2" shadowBlur="4" shadowOpacity="160" blurEnabled="0" blurRadius="4" transform="matrix(0.285504,0,0,0.29484,336.975,144.389)" pers-center="0,0" pers-size="0,0" pers-start="0,0" pers-end="0,0" locked="0" mesh="" flag=""/>
            <path id="shapePath3" d="M430.639,96.026 C430.639,149.446 388.704,192.752 336.976,192.752 C285.247,192.752 243.312,149.446 243.312,96.026 " style="stroke:#000000;stroke-opacity:1;stroke-width:7.1;stroke-linejoin:miter;stroke-miterlimit:2;stroke-linecap:butt;fill-rule:evenodd;fill:#f2f2f2;fill-opacity:1;"/>
        </g>
        <g id="Shape4">
            <desc shapeID="4" type="0" basicInfo-basicType="0" basicInfo-roundedRectRadius="12" basicInfo-polygonSides="6" basicInfo-starPoints="5" bounding="rect(-320.484,-27.1675,640.968,54.335)" text="" font-familyName="" font-pixelSize="20" font-bold="0" font-underline="0" font-alignment="1" strokeStyle="0" markerStart="0" markerEnd="0" shadowEnabled="0" shadowOffsetX="0" shadowOffsetY="2" shadowBlur="4" shadowOpacity="160" blurEnabled="0" blurRadius="4" transform="matrix(0.285504,0,0,0.29484,337.253,97.9573)" pers-center="0,0" pers-size="0,0" pers-start="0,0" pers-end="0,0" locked="0" mesh="" flag=""/>
            <path id="shapePath4" d="M245.754,105.967 L428.753,105.967 L428.753,89.9472 L245.754,89.9472 L245.754,105.967 Z" style="stroke:#000000;stroke-opacity:1;stroke-width:18.3081;stroke-linejoin:miter;stroke-miterlimit:2;stroke-linecap:butt;fill-rule:evenodd;fill:#000000;fill-opacity:1;"/>
        </g>
        <g id="Shape5">
            <desc shapeID="5" type="0" basicInfo-basicType="0" basicInfo-roundedRectRadius="12" basicInfo-polygonSides="6" basicInfo-starPoints="5" bounding="rect(-85.8405,-85.8421,171.68,171.684)" text="" font-familyName="" font-pixelSize="20" font-bold="0" font-underline="0" font-alignment="1" strokeStyle="0" markerStart="0" markerEnd="0" shadowEnabled="0" shadowOffsetX="0" shadowOffsetY="2" shadowBlur="4" shadowOpacity="160" blurEnabled="0" blurRadius="4" transform="matrix(0.285504,0,0,0.29484,338.489,96.8134)" pers-center="0,0" pers-size="0,0" pers-start="0,0" pers-end="0,0" locked="0" mesh="" flag=""/>
            <path id="shapePath5" d="M314.018,95.4283 C313.278,109.383 323.631,121.317 337.144,122.084 C350.657,122.851 362.214,112.161 362.959,98.2066 C363.704,84.2515 353.354,72.3144 339.842,71.5431 C326.329,70.7715 314.768,81.4573 314.019,95.4121 " style="stroke:#000000;stroke-opacity:1;stroke-width:4.33017;stroke-linejoin:miter;stroke-miterlimit:2;stroke-linecap:butt;fill-rule:evenodd;fill:#f2f2f2;fill-opacity:1;"/>
        </g>
        <g id="Shape6">
            <desc shapeID="6" type="0" basicInfo-basicType="0" basicInfo-roundedRectRadius="12" basicInfo-polygonSides="6" basicInfo-starPoints="5" bounding="rect(-46.2393,-46.2405,92.4786,92.481)" text="" font-familyName="" font-pixelSize="20" font-bold="0" font-underline="0" font-alignment="1" strokeStyle="0" markerStart="0" markerEnd="0" shadowEnabled="0" shadowOffsetX="0" shadowOffsetY="2" shadowBlur="4" shadowOpacity="160" blurEnabled="0" blurRadius="4" transform="matrix(0.285504,0,0,0.29484,338.462,96.2611)" pers-center="0,0" pers-size="0,0" pers-start="0,0" pers-end="0,0" locked="0" mesh="" flag=""/>
            <path id="shapePath6" d="M325.281,95.5129 C324.882,103.012 330.432,109.433 337.692,109.871 C344.953,110.309 351.189,104.6 351.638,97.1027 C352.087,89.6061 346.58,83.1465 339.322,82.657 C332.065,82.1676 325.791,87.8326 325.292,95.326 " style="stroke:none;fill-rule:evenodd;fill:#999999;fill-opacity:1;"/>
        </g>
        <g id="Shape7">
            <desc shapeID="7" type="2" basicInfo-basicType="0" basicInfo-roundedRectRadius="12" basicInfo-polygonSides="6" basicInfo-starPoints="5" bounding="rect(-66.3797,-14.8894,132.759,29.7788)" text="LAW" font-familyName="Apple Chancery" font-pixelSize="60" font-bold="0" font-underline="0" font-alignment="1" strokeStyle="0" markerStart="0" markerEnd="0" shadowEnabled="0" shadowOffsetX="0" shadowOffsetY="2" shadowBlur="4" shadowOpacity="160" blurEnabled="0" blurRadius="4" transform="matrix(1,0,0,1,329.466,48.8553)" pers-center="0,0" pers-size="0,0" pers-start="0,0" pers-end="0,0" locked="0" mesh="" flag=""/>
            <path id="shapePath7" d="M262.816,67.2654 L267.738,63.4275 C269.242,63.701 270.511,63.867 271.546,63.9256 C273.793,63.0662 275.375,61.5769 276.293,59.4578 C277.211,57.3387 277.67,54.1209 277.67,49.8045 L277.787,45.2635 C277.787,39.4236 279.779,34.8533 283.763,31.5525 C287.084,28.8182 290.589,27.451 294.281,27.451 C295.863,27.451 297.484,27.8123 299.144,28.535 L294.808,32.783 C293.031,31.6307 291.273,31.0545 289.535,31.0545 C285.179,31.0545 283.002,34.6189 283.002,41.7478 L282.884,45.7908 C282.884,51.3182 282.357,55.366 281.302,57.9344 C280.248,60.5027 278.226,62.6268 275.238,64.3064 L281.302,64.8045 L283.998,65.0096 L287.25,65.2146 C288.109,65.2732 289.076,65.3025 290.15,65.3025 C294.994,65.3025 298.773,63.8963 301.488,61.0838 C301.8,61.4744 301.957,61.7576 301.957,61.9334 C301.957,62.5779 301.019,63.6814 299.144,65.2439 C295.941,67.8807 292.504,69.199 288.832,69.199 C287.328,69.199 285.482,69.1209 283.295,68.9646 L274.593,68.3201 C270.062,67.9881 266.136,67.6365 262.816,67.2654 M310.453,45.3514 L305.853,49.7752 C305.052,47.6853 304.652,45.6639 304.652,43.7107 C304.652,38.867 306.752,34.9607 310.951,31.992 C314.466,29.492 320.482,28.242 328.998,28.242 C330.443,28.242 331.712,28.2713 332.806,28.3299 C335.834,28.5252 337.386,28.6228 337.464,28.6228 L339.515,28.6228 C337.992,31.0057 337.23,35.8299 337.23,43.0955 L337.259,44.6189 L337.377,47.9881 C337.377,52.031 337.875,56.1717 338.871,60.41 C339.261,62.0506 339.642,63.1053 340.013,63.574 C340.384,64.0428 341.029,64.2771 341.947,64.2771 C342.943,64.2771 344.076,63.9549 345.345,63.3103 C345.482,63.6424 345.55,63.9158 345.55,64.1307 C345.55,64.6189 345.17,65.0389 344.408,65.3904 L343.031,66.0643 L335.824,69.199 C334.222,64.2576 333.255,59.0818 332.923,53.6717 L330.697,55.2244 L320.853,55.2244 C319.056,59.7947 316.595,63.0564 313.47,65.0096 L319.535,65.3025 L316.371,68.6424 L304.681,68.2322 L308.578,64.7166 L311.507,64.8924 C312.836,63.9158 313.968,62.5437 314.906,60.7762 C315.843,59.0086 317.24,55.5857 319.095,50.5076 L319.974,48.076 C321.771,43.1736 323.48,39.6043 325.101,37.368 C326.722,35.1316 328.929,33.2908 331.722,31.8455 C328.656,31.2791 325.423,30.9959 322.025,30.9959 C313.373,30.9959 309.046,33.9158 309.046,39.7557 C309.046,41.7478 309.515,43.6131 310.453,45.3514 M332.865,52.0603 C332.591,48.6619 332.455,45.908 332.455,43.7986 C332.455,42.7244 332.474,41.8455 332.513,41.1619 L332.748,37.7635 C332.904,35.4393 333.119,33.6619 333.392,32.4314 C329.564,34.7752 326.42,39.5603 323.959,46.7869 C323.255,48.8768 322.845,50.0779 322.728,50.3904 L322.054,52.0603 L332.865,52.0603 M356.554,69.199 C356.886,66.8553 357.052,63.3494 357.052,58.6814 C357.052,49.3846 356.637,42.5877 355.807,38.2908 C354.977,33.9939 353.654,31.8455 351.837,31.8455 C350.666,31.8455 349.533,32.4607 348.439,33.6912 C347.345,34.9217 346.662,36.3475 346.388,37.9685 C345.587,37.7928 345.187,37.4412 345.187,36.9139 C345.187,34.9217 346.149,32.8465 348.073,30.6883 C349.997,28.5301 351.847,27.451 353.625,27.451 C355.421,27.451 356.784,28.1394 357.712,29.5164 C358.639,30.8934 359.445,33.4275 360.129,37.1189 C361.164,42.6072 361.681,48.9353 361.681,56.1033 L361.711,58.1541 L365.929,49.951 L367.804,46.3475 L370.529,40.9861 C372.091,37.9393 373.136,35.4978 373.664,33.6619 L378.146,29.3846 C378.009,30.8689 377.941,32.1385 377.941,33.1932 C377.941,36.5135 378.615,41.8162 379.962,49.1014 L380.314,51.0057 L380.9,54.0525 C381.291,56.1424 381.681,58.3982 382.072,60.8201 C382.638,59.7654 382.99,59.0818 383.127,58.7693 L385.5,53.8475 L388.371,48.0174 C390.754,43.076 391.945,39.2185 391.945,36.4451 C391.945,34.5701 391.173,33.1443 389.63,32.1678 L393.937,27.451 C395.929,28.7596 396.925,30.3318 396.925,32.1678 C396.925,34.6092 394.875,39.8631 390.773,47.9295 C390.089,49.2771 389.269,50.9178 388.312,52.8514 L387.052,55.4295 L385.763,58.3885 L384.064,62.1971 C383.927,62.5291 383.615,63.3103 383.127,64.5408 L378.615,69.3162 L378.498,68.0271 C378.107,63.9256 377.375,59.0721 376.3,53.4666 L375.949,51.7088 L375.451,49.1014 C375.08,47.2068 374.836,45.8201 374.718,44.9412 L374.162,40.9275 C374.123,40.6346 374.025,39.951 373.869,38.8768 L369.914,46.7283 L368.302,49.9217 C365.353,55.7029 363.097,60.5174 361.535,64.365 L356.554,69.199 Z" style="stroke:none;fill-rule:nonzero;fill:#ffffff;fill-opacity:1;"/>
        </g>
        <g id="Shape8">
            <desc shapeID="8" type="2" basicInfo-basicType="0" basicInfo-roundedRectRadius="12" basicInfo-polygonSides="6" basicInfo-starPoints="5" bounding="rect(-66.3797,-14.8894,132.759,29.7788)" text="TECH" font-familyName="Helvetica" font-pixelSize="50" font-bold="0" font-underline="0" font-alignment="1" strokeStyle="0" markerStart="0" markerEnd="0" shadowEnabled="0" shadowOffsetX="0" shadowOffsetY="2" shadowBlur="4" shadowOpacity="160" blurEnabled="0" blurRadius="4" transform="matrix(1,0,0,1,332.59,148.72)" pers-center="0,0" pers-size="0,0" pers-start="0,0" pers-end="0,0" locked="0" mesh="" flag=""/>
            <path id="shapePath8" d="M294.466,126.481 L294.466,130.754 L282.381,130.754 L282.381,162.345 L277.45,162.345 L277.45,130.754 L265.365,130.754 L265.365,126.481 L294.466,126.481 M299.363,126.481 L325.51,126.481 L325.51,130.876 L304.099,130.876 L304.099,141.764 L323.899,141.764 L323.899,145.915 L304.099,145.915 L304.099,158.073 L325.877,158.073 L325.877,162.345 L299.363,162.345 L299.363,126.481 M357.926,129.094 C360.433,131.486 361.824,134.204 362.101,137.248 L357.365,137.248 C356.828,134.937 355.758,133.106 354.154,131.755 C352.551,130.404 350.301,129.728 347.404,129.728 C343.872,129.728 341.02,130.969 338.847,133.451 C336.674,135.934 335.587,139.738 335.587,144.865 C335.587,149.064 336.568,152.47 338.529,155.082 C340.491,157.695 343.416,159.001 347.306,159.001 C350.887,159.001 353.613,157.625 355.485,154.875 C356.478,153.426 357.218,151.522 357.707,149.162 L362.443,149.162 C362.02,152.938 360.62,156.104 358.244,158.659 C355.395,161.735 351.554,163.273 346.72,163.273 C342.554,163.273 339.054,162.012 336.222,159.489 C332.495,156.152 330.631,151.001 330.631,144.035 C330.631,138.745 332.031,134.408 334.831,131.022 C337.858,127.344 342.033,125.505 347.355,125.505 C351.896,125.505 355.42,126.701 357.926,129.094 M368.459,126.481 L373.366,126.481 L373.366,141.301 L392.018,141.301 L392.018,126.481 L396.925,126.481 L396.925,162.345 L392.018,162.345 L392.018,145.573 L373.366,145.573 L373.366,162.345 L368.459,162.345 L368.459,126.481 Z" style="stroke:none;fill-rule:nonzero;fill:#000000;fill-opacity:1;"/>
        </g>
        <g id="Shape9">
            <desc shapeID="9" type="2" basicInfo-basicType="0" basicInfo-roundedRectRadius="12" basicInfo-polygonSides="6" basicInfo-starPoints="5" bounding="rect(-166.221,-35.7293,332.441,71.4586)" text="In Brad We Trust" font-familyName="Apple Chancery" font-pixelSize="40" font-bold="0" font-underline="0" font-alignment="1" strokeStyle="0" markerStart="0" markerEnd="0" shadowEnabled="0" shadowOffsetX="0" shadowOffsetY="2" shadowBlur="4" shadowOpacity="160" blurEnabled="0" blurRadius="4" transform="matrix(1,0,0,1,336.016,644.791)" pers-center="0,0" pers-size="0,0" pers-start="0,0" pers-end="0,0" locked="0" mesh="" flag=""/>
            <path id="shapePath9" d="M189.325,642.619 L186.141,645.666 C185.842,644.65 185.692,643.641 185.692,642.638 C185.692,639.279 186.942,636.583 189.442,634.552 C191.942,632.521 195.262,631.505 199.403,631.505 L200.946,631.505 C200.36,634.487 200.008,636.492 199.891,637.521 L198.836,647.072 L198.583,649.24 C198.361,651.089 197.961,652.423 197.381,653.244 C196.802,654.064 195.692,654.865 194.051,655.646 L199.715,655.939 L197.372,658.205 L187.86,657.775 L190.36,655.353 L192.489,655.587 C194.077,654.585 195.054,652.534 195.419,649.435 L195.633,647.541 L197.137,633.869 L196.532,633.869 C191.115,633.869 188.407,635.659 188.407,639.24 C188.407,640.36 188.713,641.486 189.325,642.619 M208.922,657.091 L206.012,658.283 L206.071,657.736 L206.227,656.291 L206.383,654.923 L207.399,645.861 L207.516,644.826 C207.594,644.018 207.633,643.367 207.633,642.873 C207.633,642.039 207.425,641.623 207.008,641.623 C206.032,641.623 204.984,642.729 203.864,644.943 C203.564,644.695 203.415,644.481 203.415,644.298 C203.415,643.517 204.128,642.453 205.553,641.105 C206.979,639.757 208.102,639.083 208.922,639.083 C210.042,639.083 210.602,639.8 210.602,641.232 C210.602,641.596 210.57,642.085 210.504,642.697 L210.348,644.279 L210.192,645.607 L210.036,646.994 C211.572,644.702 213.255,642.811 215.085,641.32 C216.914,639.829 218.473,639.083 219.762,639.083 C221.025,639.083 221.657,639.962 221.657,641.72 C221.657,642.254 221.585,643.055 221.442,644.123 L220.387,651.408 C220.179,652.866 220.075,654.018 220.075,654.865 C220.075,655.542 220.257,655.88 220.622,655.88 C221.52,655.88 222.627,654.682 223.942,652.287 C224.254,652.482 224.411,652.684 224.411,652.892 C224.411,653.738 223.685,654.848 222.233,656.222 C220.781,657.596 219.6,658.283 218.688,658.283 C217.672,658.283 217.165,657.554 217.165,656.095 C217.165,655.028 217.301,653.55 217.575,651.662 L218.258,646.935 C218.48,645.399 218.59,644.181 218.59,643.283 C218.59,642.254 218.232,641.74 217.516,641.74 C215.85,641.74 214.16,642.869 212.448,645.128 C210.736,647.388 209.736,649.813 209.45,652.404 L208.922,657.091 M239.133,657.306 L241.614,654.669 L242.219,654.806 C243.001,655.001 243.743,655.145 244.446,655.236 C245.501,654.585 246.213,653.8 246.585,652.882 C246.956,651.964 247.291,650.177 247.59,647.521 L249.231,632.814 C246.523,633.009 244.361,633.738 242.747,635.001 C241.132,636.264 240.325,637.853 240.325,639.767 C240.325,640.913 240.611,641.994 241.184,643.009 L238.04,645.783 C237.766,644.78 237.629,643.764 237.629,642.736 C237.629,639.22 239.13,636.339 242.131,634.093 C245.133,631.847 248.971,630.724 253.645,630.724 C259.674,630.724 262.688,632.456 262.688,635.919 C262.688,638.875 260.741,641.238 256.848,643.009 C260.65,644.494 262.551,646.772 262.551,649.845 C262.551,652.345 261.282,654.337 258.743,655.822 C256.204,657.306 252.805,658.048 248.547,658.048 C245.93,658.048 242.792,657.801 239.133,657.306 M252.395,632.658 L251.243,643.009 C252.011,643.074 252.675,643.107 253.235,643.107 C253.86,643.107 254.609,643.061 255.481,642.97 C258.254,641.369 259.641,639.442 259.641,637.189 C259.641,634.168 257.226,632.658 252.395,632.658 M251.067,644.572 L250.774,647.189 L250.598,648.83 C250.377,650.77 249.989,652.134 249.436,652.921 C248.883,653.709 247.708,654.559 245.911,655.47 C248.489,655.887 251.034,656.095 253.547,656.095 C257.61,656.095 259.641,654.481 259.641,651.251 C259.641,649.858 259.085,648.514 257.971,647.218 C256.858,645.923 255.501,645.041 253.899,644.572 L253.391,644.591 L252.454,644.63 L251.594,644.591 L251.067,644.572 M272.567,647.306 C275.458,641.824 278.303,639.083 281.102,639.083 C281.831,639.083 282.56,639.253 283.29,639.591 L280.536,642.599 C280.119,642.365 279.585,642.248 278.934,642.248 C277.58,642.248 276.151,643.345 274.647,645.539 C273.143,647.733 272.261,650.014 272.001,652.384 L271.473,657.15 L268.583,658.126 L268.641,657.541 L268.778,656.271 L268.934,655.001 L269.95,645.705 L270.067,644.689 C270.158,643.921 270.204,643.296 270.204,642.814 C270.204,642.02 269.982,641.623 269.54,641.623 C268.498,641.623 267.463,642.736 266.434,644.962 C266.109,644.715 265.952,644.461 265.965,644.201 C266.004,643.406 266.73,642.355 268.143,641.046 C269.556,639.738 270.672,639.083 271.493,639.083 C272.6,639.083 273.153,639.813 273.153,641.271 C273.153,641.623 273.12,642.098 273.055,642.697 L272.919,644.064 L272.743,645.705 L272.567,647.306 M294.391,650.021 C292.92,652.443 291.302,654.425 289.538,655.968 C287.773,657.511 286.24,658.283 284.938,658.283 C283.154,658.283 282.262,656.844 282.262,653.966 C282.262,650.008 283.561,646.58 286.159,643.683 C288.756,640.786 291.833,639.337 295.387,639.337 C296.741,639.337 297.894,639.507 298.844,639.845 C298.779,640.08 298.74,640.223 298.727,640.275 L298.493,641.31 C298.336,642.026 298.252,642.443 298.239,642.56 L296.989,651.193 L296.813,652.443 C296.644,653.68 296.559,654.507 296.559,654.923 C296.559,655.483 296.722,655.763 297.047,655.763 C298.141,655.763 299.261,654.539 300.407,652.091 C300.758,652.3 300.934,652.508 300.934,652.716 C300.934,653.172 300.374,654.09 299.254,655.47 C297.731,657.345 296.318,658.283 295.016,658.283 C294.066,658.283 293.59,657.645 293.59,656.369 C293.59,655.978 293.636,655.438 293.727,654.748 L293.922,653.185 L294.176,651.466 L294.391,650.021 M295.504,642.267 C294.32,641.603 293.122,641.271 291.911,641.271 C290.088,641.271 288.558,642.384 287.321,644.611 C286.084,646.837 285.465,649.598 285.465,652.892 C285.465,654.585 285.967,655.431 286.969,655.431 C288.128,655.431 289.528,654.546 291.169,652.775 C293.382,650.392 294.723,647.593 295.192,644.376 L295.504,642.267 M315.825,639.376 L316.02,637.697 C316.489,633.53 317.911,630.067 320.288,627.306 C322.664,624.546 325.402,623.166 328.501,623.166 C329.243,623.166 329.881,623.231 330.415,623.361 L327.641,626.193 C327.029,625.985 326.307,625.88 325.473,625.88 C323.52,625.88 322.062,626.564 321.098,627.931 C320.135,629.298 319.471,631.629 319.106,634.923 L317.29,651.193 L317.153,652.443 C317.036,653.55 316.977,654.337 316.977,654.806 C316.977,655.444 317.146,655.763 317.485,655.763 C318.566,655.763 319.653,654.539 320.747,652.091 C321.098,652.3 321.274,652.508 321.274,652.716 C321.274,653.185 320.747,654.103 319.692,655.47 C318.221,657.345 316.84,658.283 315.551,658.283 C314.549,658.283 314.047,657.593 314.047,656.212 C314.047,655.705 314.126,654.695 314.282,653.185 L314.477,651.466 L314.633,650.021 C313.748,651.974 312.312,653.839 310.327,655.617 C308.341,657.394 306.704,658.283 305.415,658.283 C303.579,658.283 302.661,656.844 302.661,653.966 C302.661,650.203 303.93,646.824 306.469,643.83 C309.008,640.835 311.873,639.337 315.063,639.337 C315.219,639.337 315.473,639.35 315.825,639.376 M315.512,642.169 C314.419,641.57 313.416,641.271 312.504,641.271 C310.577,641.271 308.989,642.365 307.739,644.552 C306.489,646.74 305.864,649.52 305.864,652.892 C305.864,654.585 306.359,655.431 307.348,655.431 C308.546,655.431 309.952,654.546 311.567,652.775 C313.663,650.496 314.9,647.697 315.278,644.376 L315.512,642.169 M342.059,658.556 C342.28,656.994 342.391,654.656 342.391,651.544 C342.391,645.346 342.114,640.815 341.561,637.951 C341.008,635.086 340.126,633.654 338.915,633.654 C338.133,633.654 337.378,634.064 336.649,634.884 C335.92,635.705 335.464,636.655 335.282,637.736 C334.748,637.619 334.481,637.384 334.481,637.033 C334.481,635.705 335.122,634.321 336.405,632.882 C337.687,631.444 338.921,630.724 340.106,630.724 C341.304,630.724 342.212,631.183 342.831,632.101 C343.449,633.019 343.986,634.708 344.442,637.169 C345.132,640.828 345.477,645.047 345.477,649.826 L345.497,651.193 L348.309,645.724 L349.559,643.322 L351.376,639.748 C352.417,637.716 353.114,636.089 353.465,634.865 L356.454,632.013 C356.363,633.003 356.317,633.849 356.317,634.552 C356.317,636.766 356.766,640.301 357.665,645.158 L357.899,646.427 L358.29,648.458 C358.55,649.852 358.81,651.356 359.071,652.97 C359.448,652.267 359.683,651.811 359.774,651.603 L361.356,648.322 L363.27,644.435 C364.859,641.141 365.653,638.569 365.653,636.72 C365.653,635.47 365.139,634.52 364.11,633.869 L366.981,630.724 C368.309,631.596 368.973,632.645 368.973,633.869 C368.973,635.496 367.606,638.999 364.872,644.376 C364.416,645.275 363.869,646.369 363.231,647.658 L362.391,649.376 L361.532,651.349 L360.399,653.888 C360.308,654.11 360.1,654.63 359.774,655.451 L356.766,658.634 L356.688,657.775 C356.428,655.041 355.939,651.805 355.223,648.068 L354.989,646.896 L354.657,645.158 C354.409,643.895 354.247,642.97 354.169,642.384 L353.797,639.708 C353.771,639.513 353.706,639.057 353.602,638.341 L350.965,643.576 L349.891,645.705 C347.925,649.559 346.421,652.768 345.379,655.333 L342.059,658.556 M380.711,651.564 C381.037,651.785 381.2,652.046 381.2,652.345 C381.2,652.749 380.783,653.439 379.95,654.416 C377.723,656.994 375.523,658.283 373.348,658.283 C372.02,658.283 370.926,657.755 370.067,656.701 C369.208,655.646 368.778,654.298 368.778,652.658 C368.778,649.689 369.901,646.684 372.147,643.644 C374.393,640.604 376.616,639.083 378.817,639.083 C380.405,639.083 381.2,639.936 381.2,641.642 C381.2,643.556 380.272,645.425 378.417,647.248 C376.561,649.07 374.299,650.34 371.629,651.056 C371.89,654.194 373.127,655.763 375.34,655.763 C377.528,655.763 379.318,654.363 380.711,651.564 M371.708,648.673 C372.085,648.804 372.43,648.869 372.743,648.869 C374.357,648.869 375.77,648.374 376.981,647.384 C378.192,646.395 378.797,645.236 378.797,643.908 C378.797,642.384 378.023,641.623 376.473,641.623 C375.353,641.623 374.341,642.29 373.436,643.625 C372.531,644.959 371.955,646.642 371.708,648.673 M398.731,642.619 L395.547,645.666 C395.248,644.65 395.098,643.654 395.098,642.677 C395.098,639.096 396.589,636.199 399.571,633.986 C401.797,632.332 404.864,631.505 408.77,631.505 L420.43,631.505 C425.261,631.505 427.676,630.014 427.676,627.033 C427.676,625.991 427.318,625.028 426.602,624.142 L429.063,621.798 C429.636,622.58 429.922,623.582 429.922,624.806 C429.922,627.371 428.767,629.523 426.456,631.261 C424.144,633 421.29,633.869 417.891,633.869 L412.461,633.869 L410.997,647.072 L410.762,649.24 C410.541,651.089 410.141,652.423 409.561,653.244 C408.982,654.064 407.865,654.865 406.211,655.646 L411.895,655.939 L409.551,658.205 L400.02,657.775 L402.54,655.353 L404.669,655.587 C406.244,654.585 407.221,652.534 407.598,649.435 L407.794,647.541 L409.317,633.869 L405.997,633.869 C400.541,633.869 397.813,635.672 397.813,639.279 C397.813,640.373 398.119,641.486 398.731,642.619 M429.708,647.306 C432.598,641.824 435.443,639.083 438.243,639.083 C438.972,639.083 439.701,639.253 440.43,639.591 L437.676,642.599 C437.26,642.365 436.726,642.248 436.075,642.248 C434.721,642.248 433.292,643.345 431.788,645.539 C430.284,647.733 429.402,650.014 429.141,652.384 L428.614,657.15 L425.723,658.126 L425.782,657.541 L425.919,656.271 L426.075,655.001 L427.09,645.705 L427.208,644.689 C427.299,643.921 427.344,643.296 427.344,642.814 C427.344,642.02 427.123,641.623 426.68,641.623 C425.639,641.623 424.603,642.736 423.575,644.962 C423.249,644.715 423.093,644.461 423.106,644.201 C423.145,643.406 423.871,642.355 425.284,641.046 C426.697,639.738 427.813,639.083 428.633,639.083 C429.74,639.083 430.294,639.813 430.294,641.271 C430.294,641.623 430.261,642.098 430.196,642.697 L430.059,644.064 L429.883,645.705 L429.708,647.306 M454.118,650.099 C452.633,652.378 450.96,654.311 449.098,655.9 C447.236,657.488 445.719,658.283 444.547,658.283 C443.258,658.283 442.614,657.423 442.614,655.705 C442.614,655.067 442.698,654.018 442.868,652.56 L443.571,646.154 C443.584,646.063 443.616,645.685 443.669,645.021 L443.786,643.751 C443.825,643.374 443.844,643.035 443.844,642.736 C443.844,641.981 443.629,641.603 443.2,641.603 C442.21,641.603 441.142,642.716 439.997,644.943 C439.749,644.748 439.626,644.539 439.626,644.318 C439.626,643.511 440.345,642.436 441.784,641.095 C443.223,639.754 444.365,639.083 445.211,639.083 C446.292,639.083 446.833,639.826 446.833,641.31 C446.833,641.662 446.807,642.072 446.754,642.541 L446.579,644.044 L446.403,645.685 L445.778,651.271 C445.674,652.221 445.622,653.185 445.622,654.162 C445.622,655.06 445.954,655.509 446.618,655.509 C448.089,655.509 449.753,654.298 451.608,651.876 C453.463,649.455 454.56,647.059 454.899,644.689 L455.563,640.06 L458.727,638.986 C458.363,640.496 458.089,641.844 457.907,643.029 L456.735,651.193 C456.67,651.688 456.618,652.104 456.579,652.443 L456.442,653.517 C456.364,654.181 456.325,654.65 456.325,654.923 C456.325,655.483 456.481,655.763 456.794,655.763 C457.9,655.763 459.027,654.539 460.172,652.091 C460.524,652.3 460.7,652.508 460.7,652.716 C460.7,653.172 460.133,654.09 459.001,655.47 C457.477,657.345 456.064,658.283 454.762,658.283 C453.812,658.283 453.336,657.645 453.336,656.369 C453.336,655.965 453.382,655.425 453.473,654.748 L453.688,653.185 C453.805,652.339 453.883,651.766 453.922,651.466 L454.118,650.099 M461.169,657.228 L463.864,655.021 C464.879,656.102 466.156,656.642 467.692,656.642 C469.567,656.642 470.504,655.737 470.504,653.927 C470.504,652.925 469.645,651.525 467.926,649.728 L466.813,648.576 C465.185,646.87 464.372,645.49 464.372,644.435 C464.372,642.925 465.026,641.655 466.335,640.626 C467.643,639.598 469.254,639.083 471.169,639.083 C472.21,639.083 473.349,639.279 474.586,639.669 L472.243,641.837 C471.253,641.095 470.153,640.724 468.942,640.724 C467.523,640.724 466.813,641.317 466.813,642.501 C466.813,643.348 467.601,644.591 469.176,646.232 L470.387,647.521 C472.184,649.396 473.083,650.906 473.083,652.052 C473.083,653.693 472.295,655.141 470.719,656.398 C469.144,657.654 467.327,658.283 465.27,658.283 C463.812,658.283 462.445,657.931 461.169,657.228 M482.751,641.857 L481.774,650.49 C481.605,652.039 481.52,653.185 481.52,653.927 C481.52,655.399 482.021,656.134 483.024,656.134 C484.105,656.134 485.224,655.249 486.383,653.478 C486.579,653.725 486.676,653.947 486.676,654.142 C486.676,654.871 486.035,655.744 484.753,656.759 C483.47,657.775 482.366,658.283 481.442,658.283 C479.593,658.283 478.669,657.098 478.669,654.728 C478.669,653.856 478.779,652.443 479.001,650.49 L479.958,641.857 L475.836,641.857 L478.122,639.591 L480.211,639.591 L480.622,636.037 L483.493,635.08 L483.004,639.591 L491.286,639.591 L489.001,641.857 L482.751,641.857 Z" style="stroke:none;fill-rule:nonzero;fill:#e8e4ad;fill-opacity:1;"/>
        </g>
        <g id="Shape10">
            <desc shapeID="10" type="0" basicInfo-basicType="0" basicInfo-roundedRectRadius="12" basicInfo-polygonSides="6" basicInfo-starPoints="5" bounding="rect(-247.143,-226.232,494.286,452.464)" text="" font-familyName="" font-pixelSize="20" font-bold="0" font-underline="0" font-alignment="1" strokeStyle="0" markerStart="0" markerEnd="0" shadowEnabled="0" shadowOffsetX="0" shadowOffsetY="2" shadowBlur="4" shadowOpacity="160" blurEnabled="0" blurRadius="4" transform="matrix(0.243075,0,0,0.238081,117.301,96.0259)" pers-center="0,0" pers-size="0,0" pers-start="0,0" pers-end="0,0" locked="0" mesh="" flag=""/>
            <path id="shapePath10" d="M173.288,78.898 L173.324,78.877 L156.478,50.1164 L156.841,50.0402 C158.364,49.7181 159.45,48.3986 159.45,46.8735 L159.45,45.4036 C159.45,43.3411 157.506,41.8031 155.446,42.2385 L77.7597,58.6499 C76.2373,58.972 75.1515,60.2915 75.1515,61.8166 L75.1515,63.2865 C75.1515,65.2893 76.9846,66.7801 78.9749,66.4694 L61.2768,96.6855 L61.313,96.7067 L57.2272,96.7067 C57.2272,106.982 68.2752,115.312 81.9034,115.312 C95.5317,115.312 106.58,106.982 106.58,96.7067 L103.076,96.7067 L103.112,96.6855 L84.7151,65.2764 L113.168,59.2651 L113.168,142.805 C99.3516,143.85 96.0062,149.888 96.0062,149.888 L138.681,149.888 C138.681,149.888 135.322,143.825 121.433,142.797 L121.433,57.5197 L147.187,52.0786 L131.493,78.877 L131.529,78.898 L128.023,78.898 C128.023,89.1735 139.071,97.503 152.7,97.503 C166.328,97.503 177.376,89.1735 177.376,78.898 L173.288,78.898 M66.981,96.7064 L82.1927,70.7337 L97.4046,96.7064 L66.981,96.7064 M137.195,78.898 L152.407,52.9236 L167.62,78.898 L137.195,78.898 Z" style="stroke:none;fill-rule:nonzero;fill:#c0d1d8;fill-opacity:1;"/>
        </g>
        <g id="Shape11">
            <desc shapeID="11" type="0" basicInfo-basicType="0" basicInfo-roundedRectRadius="12" basicInfo-polygonSides="6" basicInfo-starPoints="5" bounding="rect(-44.806,-49.6205,89.612,99.241)" text="" font-familyName="" font-pixelSize="20" font-bold="0" font-underline="0" font-alignment="1" strokeStyle="0" markerStart="0" markerEnd="0" shadowEnabled="0" shadowOffsetX="0" shadowOffsetY="2" shadowBlur="4" shadowOpacity="160" blurEnabled="0" blurRadius="4" transform="matrix(0.288248,0,0,0.283115,538.039,93.649)" pers-center="0,0" pers-size="0,0" pers-start="0,0" pers-end="0,0" locked="0" mesh="" flag=""/>
            <path id="shapePath11" d="M550.954,100.559 L550.954,107.697 L525.123,96.6991 L525.123,90.5963 L550.954,79.6006 L550.954,86.7884 L532.956,93.5996 L550.954,100.559 Z" style="stroke:none;fill-rule:nonzero;fill:#c0d1d8;fill-opacity:1;"/>
        </g>
        <g id="Shape12">
            <desc shapeID="12" type="0" basicInfo-basicType="0" basicInfo-roundedRectRadius="12" basicInfo-polygonSides="6" basicInfo-starPoints="5" bounding="rect(-23.25,-67.5215,46.5,135.043)" text="" font-familyName="" font-pixelSize="20" font-bold="0" font-underline="0" font-alignment="1" strokeStyle="0" markerStart="0" markerEnd="0" shadowEnabled="0" shadowOffsetX="0" shadowOffsetY="2" shadowBlur="4" shadowOpacity="160" blurEnabled="0" blurRadius="4" transform="matrix(0.288248,0,0,0.283115,560.764,93.446)" pers-center="0,0" pers-size="0,0" pers-start="0,0" pers-end="0,0" locked="0" mesh="" flag=""/>
            <path id="shapePath12" d="M566.926,79.4489 L559.735,108.528 C559.495,109.485 559.287,110.243 559.107,110.799 C558.927,111.354 558.655,111.788 558.286,112.095 C557.918,112.407 557.383,112.562 556.68,112.562 C554.936,112.562 554.062,111.821 554.062,110.344 C554.062,109.957 554.233,108.99 554.575,107.444 L561.739,78.364 C562.116,76.8179 562.476,75.7582 562.818,75.1874 C563.16,74.6158 563.827,74.3296 564.821,74.3296 C565.677,74.3296 566.332,74.5317 566.784,74.9355 C567.238,75.3392 567.465,75.8944 567.465,76.5999 C567.466,77.1211 567.284,78.0707 566.926,79.4489 Z" style="stroke:none;fill-rule:nonzero;fill:#c0d1d8;fill-opacity:1;"/>
        </g>
        <g id="Shape13">
            <desc shapeID="13" type="0" basicInfo-basicType="0" basicInfo-roundedRectRadius="12" basicInfo-polygonSides="6" basicInfo-starPoints="5" bounding="rect(-44.8055,-49.53,89.611,99.06)" text="" font-familyName="" font-pixelSize="20" font-bold="0" font-underline="0" font-alignment="1" strokeStyle="0" markerStart="0" markerEnd="0" shadowEnabled="0" shadowOffsetX="0" shadowOffsetY="2" shadowBlur="4" shadowOpacity="160" blurEnabled="0" blurRadius="4" transform="matrix(0.288248,0,0,0.283115,583.463,93.7241)" pers-center="0,0" pers-size="0,0" pers-start="0,0" pers-end="0,0" locked="0" mesh="" flag=""/>
            <path id="shapePath13" d="M596.378,96.6991 L570.548,107.747 L570.548,100.609 L588.599,93.6491 L570.548,86.7881 L570.548,79.7014 L596.378,90.6461 L596.378,96.6991 Z" style="stroke:none;fill-rule:nonzero;fill:#c0d1d8;fill-opacity:1;"/>
        </g>
        <g id="Shape14">
            <desc shapeID="14" type="0" basicInfo-basicType="0" basicInfo-roundedRectRadius="12" basicInfo-polygonSides="6" basicInfo-starPoints="5" bounding="rect(-206,-181.282,412.001,362.563)" text="" font-familyName="" font-pixelSize="20" font-bold="0" font-underline="0" font-alignment="1" strokeStyle="0" markerStart="0" markerEnd="0" shadowEnabled="0" shadowOffsetX="0" shadowOffsetY="2" shadowBlur="4" shadowOpacity="160" blurEnabled="0" blurRadius="4" transform="matrix(0.288248,0,0,0.283115,560.764,96.0259)" pers-center="0,0" pers-size="0,0" pers-start="0,0" pers-end="0,0" locked="0" mesh="" flag=""/>
            <path id="shapePath14" d="M613.017,44.7024 L508.51,44.7024 C504.575,44.7024 501.384,47.837 501.384,51.7016 L501.384,140.351 C501.384,144.214 504.575,147.349 508.51,147.349 L613.018,147.349 C616.953,147.349 620.143,144.214 620.143,140.351 L620.143,51.7016 C620.142,47.8356 616.953,44.7024 613.017,44.7024 M595.204,49.3684 C597.821,49.3684 599.954,51.4606 599.954,54.0344 C599.954,56.6074 597.821,58.6999 595.204,58.6999 C592.584,58.6999 590.453,56.6074 590.453,54.0344 C590.453,51.4609 592.584,49.3684 595.204,49.3684 M582.141,49.3684 C584.759,49.3684 586.89,51.4606 586.89,54.0344 C586.89,56.6074 584.759,58.6999 582.141,58.6999 C579.521,58.6999 577.39,56.6074 577.39,54.0344 C577.39,51.4609 579.521,49.3684 582.141,49.3684 M613.017,140.351 L508.51,140.351 L508.51,63.3659 L613.018,63.3659 L613.018,140.351 L613.017,140.351 M608.267,58.6999 C605.648,58.6999 603.516,56.6074 603.516,54.0344 C603.516,51.4606 605.648,49.3684 608.267,49.3684 C610.885,49.3684 613.017,51.4606 613.017,54.0344 C613.017,56.6074 610.885,58.6999 608.267,58.6999 Z" style="stroke:none;fill-rule:nonzero;fill:#c0d1d8;fill-opacity:1;"/>
        </g>
        <g id="Shape15">
            <desc shapeID="15" type="2" basicInfo-basicType="0" basicInfo-roundedRectRadius="12" basicInfo-polygonSides="6" basicInfo-starPoints="5" bounding="rect(-271,-68,542,136)" text="SIMULATION" font-familyName="Century Gothic" font-pixelSize="80" font-bold="1" font-underline="0" font-alignment="1" strokeStyle="0" markerStart="0" markerEnd="0" shadowEnabled="0" shadowOffsetX="0" shadowOffsetY="2" shadowBlur="4" shadowOpacity="160" blurEnabled="0" blurRadius="4" transform="matrix(1,0,0,1,339.128,296.104)" pers-center="0,0" pers-size="0,0" pers-start="0,0" pers-end="0,0" locked="0" mesh="" flag=""/>
            <path id="shapePath15" d="M143.886,276.925 L135.8,284.073 C132.962,280.115 130.071,278.136 127.128,278.136 C125.696,278.136 124.524,278.52 123.613,279.288 C122.701,280.056 122.245,280.922 122.245,281.886 C122.245,282.849 122.571,283.761 123.222,284.62 C124.107,285.766 126.777,288.227 131.23,292.003 C135.397,295.493 137.923,297.693 138.808,298.604 C141.022,300.844 142.591,302.986 143.515,305.03 C144.439,307.075 144.902,309.308 144.902,311.729 C144.902,316.443 143.274,320.336 140.019,323.409 C136.764,326.482 132.519,328.019 127.285,328.019 C123.196,328.019 119.635,327.016 116.601,325.011 C113.567,323.006 110.969,319.854 108.808,315.558 L117.988,310.011 C120.748,315.089 123.925,317.628 127.519,317.628 C129.394,317.628 130.969,317.081 132.245,315.987 C133.522,314.894 134.16,313.631 134.16,312.198 C134.16,310.896 133.678,309.594 132.714,308.292 C131.751,306.99 129.628,304.998 126.347,302.315 C120.097,297.211 116.061,293.272 114.238,290.499 C112.415,287.726 111.503,284.959 111.503,282.198 C111.503,278.214 113.02,274.796 116.054,271.944 C119.088,269.093 122.831,267.667 127.285,267.667 C130.149,267.667 132.877,268.331 135.468,269.659 C138.059,270.987 140.865,273.409 143.886,276.925 M154.581,269.112 L165.441,269.112 L165.441,326.573 L154.581,326.573 L154.581,269.112 M183.285,269.112 L193.988,269.112 L207.269,309.19 L220.745,269.112 L231.292,269.112 L240.98,326.573 L230.433,326.573 L224.261,290.284 L212.035,326.573 L202.386,326.573 L190.316,290.284 L184.027,326.573 L173.363,326.573 L183.285,269.112 M249.331,269.112 L260.308,269.112 L260.308,306.3 C260.308,309.503 260.588,311.769 261.148,313.097 C261.708,314.425 262.632,315.486 263.921,316.28 C265.21,317.075 266.766,317.472 268.589,317.472 C270.516,317.472 272.176,317.029 273.57,316.144 C274.963,315.258 275.926,314.132 276.46,312.765 C276.994,311.397 277.261,308.787 277.261,304.933 L277.261,269.112 L288.238,269.112 L288.238,303.37 C288.238,309.151 287.912,313.162 287.261,315.401 C286.61,317.641 285.367,319.802 283.531,321.886 C281.695,323.969 279.579,325.512 277.183,326.515 C274.787,327.517 272.001,328.019 268.824,328.019 C264.657,328.019 261.031,327.062 257.945,325.147 C254.859,323.233 252.652,320.838 251.324,317.96 C249.995,315.082 249.331,310.219 249.331,303.37 L249.331,269.112 M300.925,269.112 L311.863,269.112 L311.863,316.144 L327.8,316.144 L327.8,326.573 L300.925,326.573 L300.925,269.112 M353.613,269.112 L364.706,269.112 L386.816,326.573 L375.449,326.573 L370.956,314.737 L347.519,314.737 L342.831,326.573 L331.464,326.573 L353.613,269.112 M359.238,284.347 L351.581,304.073 L366.855,304.073 L359.238,284.347 M389.62,269.112 L421.378,269.112 L421.378,279.894 L410.91,279.894 L410.91,326.573 L399.816,326.573 L399.816,279.894 L389.62,279.894 L389.62,269.112 M428.097,269.112 L438.956,269.112 L438.956,326.573 L428.097,326.573 L428.097,269.112 M478.402,267.667 C486.527,267.667 493.512,270.61 499.359,276.495 C505.205,282.381 508.128,289.555 508.128,298.019 C508.128,306.404 505.244,313.5 499.476,319.308 C493.708,325.115 486.709,328.019 478.48,328.019 C469.86,328.019 462.699,325.037 456.995,319.073 C451.292,313.11 448.441,306.026 448.441,297.823 C448.441,292.328 449.769,287.276 452.425,282.667 C455.081,278.058 458.734,274.405 463.382,271.71 C468.031,269.015 473.037,267.667 478.402,267.667 M478.285,278.37 C472.972,278.37 468.506,280.219 464.886,283.917 C461.266,287.615 459.456,292.315 459.456,298.019 C459.456,304.373 461.735,309.399 466.292,313.097 C469.834,315.987 473.897,317.433 478.48,317.433 C483.662,317.433 488.076,315.558 491.722,311.808 C495.368,308.058 497.191,303.435 497.191,297.94 C497.191,292.472 495.355,287.843 491.683,284.054 C488.011,280.265 483.545,278.37 478.285,278.37 M518.48,269.112 L528.949,269.112 L553.597,306.925 L553.597,269.112 L564.535,269.112 L564.535,326.573 L554.027,326.573 L529.417,288.878 L529.417,326.573 L518.48,326.573 L518.48,269.112 Z" style="stroke:none;fill-rule:nonzero;fill:#800000;fill-opacity:1;"/>
        </g>
        <g id="Shape16">
            <desc shapeID="16" type="0" basicInfo-basicType="0" basicInfo-roundedRectRadius="12" basicInfo-polygonSides="6" basicInfo-starPoints="5" bounding="rect(-3.8735,-5.28601,7.74701,10.572)" text="" font-familyName="" font-pixelSize="20" font-bold="0" font-underline="0" font-alignment="1" strokeStyle="0" markerStart="0" markerEnd="0" shadowEnabled="0" shadowOffsetX="0" shadowOffsetY="2" shadowBlur="4" shadowOpacity="160" blurEnabled="0" blurRadius="4" transform="matrix(5.58675,0,0,5.15595,346.282,476.421)" pers-center="0,0" pers-size="0,0" pers-start="0,0" pers-end="0,0" locked="0" mesh="" flag=""/>
            <path id="shapePath16" d="M366.18,473.296 L331.318,449.909 C330.039,449.053 328.341,448.924 326.938,449.589 C325.525,450.249 324.642,451.59 324.642,453.039 L324.642,499.798 C324.642,501.262 325.525,502.598 326.938,503.258 C327.536,503.536 328.19,503.675 328.849,503.675 C329.709,503.675 330.581,503.423 331.318,502.922 L366.18,479.556 C367.28,478.808 367.923,477.653 367.923,476.426 C367.928,475.178 367.269,474.028 366.18,473.296 Z" style="stroke:none;fill-rule:nonzero;fill:#c0d1d8;fill-opacity:1;"/>
        </g>
        <g id="Shape17">
            <desc shapeID="17" type="0" basicInfo-basicType="0" basicInfo-roundedRectRadius="12" basicInfo-polygonSides="6" basicInfo-starPoints="5" bounding="rect(-15.0255,-15.0235,30.051,30.047)" text="" font-familyName="" font-pixelSize="20" font-bold="0" font-underline="0" font-alignment="1" strokeStyle="0" markerStart="0" markerEnd="0" shadowEnabled="0" shadowOffsetX="0" shadowOffsetY="2" shadowBlur="4" shadowOpacity="160" blurEnabled="0" blurRadius="4" transform="matrix(5.58675,0,0,5.15595,338.489,476.326)" pers-center="0,0" pers-size="0,0" pers-start="0,0" pers-end="0,0" locked="0" mesh="" flag=""/>
            <path id="shapePath17" d="M338.492,398.865 C292.122,398.865 254.545,433.544 254.545,476.338 C254.545,519.117 292.122,553.786 338.492,553.786 C384.85,553.786 422.433,519.112 422.433,476.338 C422.438,433.544 384.85,398.865 338.492,398.865 M338.492,540.86 C299.876,540.86 268.568,511.982 268.568,476.338 C268.568,440.711 299.876,411.796 338.492,411.796 C377.102,411.796 408.404,440.706 408.404,476.338 C408.41,511.982 377.102,540.86 338.492,540.86 Z" style="stroke:none;fill-rule:nonzero;fill:#c0d1d8;fill-opacity:1;"/>
        </g>
    </g>
</svg>
