<?xml version="1.0"?>
<svg version="1.1" xmlns="http://www.w3.org/2000/svg" xmlns:xlink="http://www.w3.org/1999/xlink" width="674.715" height="672.056">
    <desc iVinci="yes" version="4.6" gridStep="20" showGrid="no" snapToGrid="no" codePlatform="0"/>
    <g id="Layer1" name="Layer 2" opacity="1">
        <g id="Shape1">
            <desc shapeID="1" type="0" basicInfo-basicType="1" basicInfo-roundedRectRadius="12" basicInfo-polygonSides="6" basicInfo-starPoints="5" bounding="rect(-355.5,-356,711,712)" text="" font-familyName="Helvetica" font-pixelSize="175" font-bold="0" font-underline="0" font-alignment="1" strokeStyle="0" markerStart="0" markerEnd="0" shadowEnabled="0" shadowOffsetX="0" shadowOffsetY="2" shadowBlur="4" shadowOpacity="160" blurEnabled="0" blurRadius="4" transform="matrix(1,0,0,1,338,341.5)" pers-center="0,0" pers-size="0,0" pers-start="0,0" pers-end="0,0" locked="0" mesh="" flag=""/>
            <path id="shapePath1" d="M-17.5,-14.5 L693.5,-14.5 L693.5,697.5 L-17.5,697.5 L-17.5,-14.5 Z" style="stroke:none;fill-rule:evenodd;fill:#06023d;fill-opacity:1;"/>
        </g>
    </g>
    <g id="Layer2" name="Layer 1" opacity="1">
        <g id="Shape2">
            <desc shapeID="2" type="0" basicInfo-basicType="0" basicInfo-roundedRectRadius="12" basicInfo-polygonSides="6" basicInfo-starPoints="5" bounding="rect(-328.203,-164.102,656.407,328.203)" text="" font-familyName="" font-pixelSize="20" font-bold="0" font-underline="0" font-alignment="1" strokeStyle="0" markerStart="0" markerEnd="0" shadowEnabled="0" shadowOffsetX="0" shadowOffsetY="2" shadowBlur="4" shadowOpacity="160" blurEnabled="0" blurRadius="4" transform="matrix(1,0,0,1,337.357,173.256)" pers-center="0,0" pers-size="0,0" pers-start="0,0" pers-end="0,0" locked="0" mesh="" flag=""/>
            <path id="shapePath2" d="M665.561,337.357 C665.561,156.096 518.619,9.15414 337.357,9.15414 C156.096,9.15414 9.15411,156.096 9.15411,337.357 " style="stroke:#000000;stroke-opacity:1;stroke-width:7.1;stroke-linejoin:miter;stroke-miterlimit:2;stroke-linecap:butt;fill-rule:evenodd;fill:#800000;fill-opacity:1;"/>
        </g>
        <g id="Shape3">
            <desc shapeID="3" type="0" basicInfo-basicType="0" basicInfo-roundedRectRadius="12" basicInfo-polygonSides="6" basicInfo-starPoints="5" bounding="rect(-328.062,-164.032,656.125,328.063)" text="" font-familyName="" font-pixelSize="20" font-bold="0" font-underline="0" font-alignment="1" strokeStyle="0" markerStart="0" markerEnd="0" shadowEnabled="0" shadowOffsetX="0" shadowOffsetY="2" shadowBlur="4" shadowOpacity="160" blurEnabled="0" blurRadius="4" transform="matrix(1,0,0,1,337.271,498.875)" pers-center="0,0" pers-size="0,0" pers-start="0,0" pers-end="0,0" locked="0" mesh="" flag=""/>
            <path id="shapePath3" d="M665.334,334.843 C665.334,516.027 518.456,662.906 337.272,662.906 C156.088,662.906 9.20923,516.027 9.20923,334.843 " style="stroke:#000000;stroke-opacity:1;stroke-width:7.1;stroke-linejoin:miter;stroke-miterlimit:2;stroke-linecap:butt;fill-rule:evenodd;fill:#f2f2f2;fill-opacity:1;"/>
        </g>
        <g id="Shape4">
            <desc shapeID="4" type="0" basicInfo-basicType="0" basicInfo-roundedRectRadius="12" basicInfo-polygonSides="6" basicInfo-starPoints="5" bounding="rect(-320.484,-27.1675,640.968,54.335)" text="" font-familyName="" font-pixelSize="20" font-bold="0" font-underline="0" font-alignment="1" strokeStyle="0" markerStart="0" markerEnd="0" shadowEnabled="0" shadowOffsetX="0" shadowOffsetY="2" shadowBlur="4" shadowOpacity="160" blurEnabled="0" blurRadius="4" transform="matrix(1,0,0,1,338.245,341.393)" pers-center="0,0" pers-size="0,0" pers-start="0,0" pers-end="0,0" locked="0" mesh="" flag=""/>
            <path id="shapePath4" d="M17.761,368.561 L658.729,368.561 L658.729,314.226 L17.761,314.226 L17.761,368.561 Z" style="stroke:#000000;stroke-opacity:1;stroke-width:18.3081;stroke-linejoin:miter;stroke-miterlimit:2;stroke-linecap:butt;fill-rule:evenodd;fill:#000000;fill-opacity:1;"/>
        </g>
        <g id="Shape5">
            <desc shapeID="5" type="0" basicInfo-basicType="0" basicInfo-roundedRectRadius="12" basicInfo-polygonSides="6" basicInfo-starPoints="5" bounding="rect(-85.8407,-85.8421,171.68,171.684)" text="" font-familyName="" font-pixelSize="20" font-bold="0" font-underline="0" font-alignment="1" strokeStyle="0" markerStart="0" markerEnd="0" shadowEnabled="0" shadowOffsetX="0" shadowOffsetY="2" shadowBlur="4" shadowOpacity="160" blurEnabled="0" blurRadius="4" transform="matrix(1,0,0,1,342.573,337.514)" pers-center="0,0" pers-size="0,0" pers-start="0,0" pers-end="0,0" locked="0" mesh="" flag=""/>
            <path id="shapePath5" d="M256.863,332.816 C254.269,380.147 290.531,420.622 337.861,423.224 C385.191,425.826 425.671,389.569 428.28,342.239 C430.889,294.908 394.64,254.421 347.311,251.805 C299.982,249.188 259.49,285.431 256.866,332.761 " style="stroke:#000000;stroke-opacity:1;stroke-width:4.33017;stroke-linejoin:miter;stroke-miterlimit:2;stroke-linecap:butt;fill-rule:evenodd;fill:#f2f2f2;fill-opacity:1;"/>
        </g>
        <g id="Shape6">
            <desc shapeID="6" type="0" basicInfo-basicType="0" basicInfo-roundedRectRadius="12" basicInfo-polygonSides="6" basicInfo-starPoints="5" bounding="rect(-46.2393,-46.2405,92.4786,92.481)" text="" font-familyName="" font-pixelSize="20" font-bold="0" font-underline="0" font-alignment="1" strokeStyle="0" markerStart="0" markerEnd="0" shadowEnabled="0" shadowOffsetX="0" shadowOffsetY="2" shadowBlur="4" shadowOpacity="160" blurEnabled="0" blurRadius="4" transform="matrix(1,0,0,1,342.478,335.641)" pers-center="0,0" pers-size="0,0" pers-start="0,0" pers-end="0,0" locked="0" mesh="" flag=""/>
            <path id="shapePath6" d="M296.31,333.103 C294.912,358.539 314.351,380.315 339.782,381.801 C365.213,383.286 387.055,363.922 388.628,338.495 C390.2,313.069 370.911,291.16 345.491,289.5 C320.071,287.84 298.096,307.054 296.349,332.469 " style="stroke:none;fill-rule:evenodd;fill:#999999;fill-opacity:1;"/>
        </g>
        <g id="Shape7">
            <desc shapeID="7" type="2" basicInfo-basicType="0" basicInfo-roundedRectRadius="12" basicInfo-polygonSides="6" basicInfo-starPoints="5" bounding="rect(-232.5,-50.5,465,101)" text="LAW" font-familyName="Apple Chancery" font-pixelSize="185" font-bold="0" font-underline="0" font-alignment="1" strokeStyle="0" markerStart="0" markerEnd="0" shadowEnabled="0" shadowOffsetX="0" shadowOffsetY="2" shadowBlur="4" shadowOpacity="160" blurEnabled="0" blurRadius="4" transform="matrix(1,0,0,1,337.02,173.558)" pers-center="0,0" pers-size="0,0" pers-start="0,0" pers-end="0,0" locked="0" mesh="" flag=""/>
            <path id="shapePath7" d="M131.479,231.475 L146.655,219.641 C151.292,220.485 155.207,220.996 158.398,221.177 C165.324,218.527 170.202,213.936 173.032,207.402 C175.863,200.867 177.278,190.946 177.278,177.637 L177.639,163.636 C177.639,145.629 183.782,131.538 196.067,121.36 C206.304,112.929 217.114,108.714 228.496,108.714 C233.374,108.714 238.372,109.828 243.491,112.056 L230.122,125.154 C224.642,121.601 219.222,119.825 213.862,119.825 C200.433,119.825 193.718,130.815 193.718,152.796 L193.357,165.262 C193.357,182.304 191.731,194.785 188.479,202.704 C185.227,210.623 178.994,217.172 169.78,222.351 L188.479,223.887 L196.79,224.519 L206.816,225.152 C209.466,225.332 212.447,225.423 215.759,225.423 C230.694,225.423 242.347,221.087 250.718,212.415 C251.681,213.619 252.163,214.493 252.163,215.035 C252.163,217.022 249.272,220.424 243.491,225.242 C233.615,233.372 223.016,237.437 211.694,237.437 C207.057,237.437 201.366,237.196 194.622,236.714 L167.793,234.727 C153.822,233.703 141.717,232.619 131.479,231.475 M278.352,163.907 L264.169,177.547 C261.7,171.103 260.466,164.87 260.466,158.848 C260.466,143.913 266.94,131.869 279.887,122.715 C290.727,115.007 309.275,111.153 335.532,111.153 C339.988,111.153 343.902,111.243 347.275,111.424 C356.609,112.026 361.397,112.327 361.638,112.327 L367.961,112.327 C363.264,119.674 360.915,134.549 360.915,156.951 L361.005,161.648 L361.367,172.037 C361.367,184.502 362.902,197.269 365.974,210.337 C367.178,215.396 368.352,218.648 369.497,220.093 C370.641,221.538 372.628,222.261 375.458,222.261 C378.53,222.261 382.023,221.267 385.937,219.28 C386.359,220.304 386.569,221.147 386.569,221.809 C386.569,223.315 385.395,224.61 383.046,225.694 L378.801,227.771 L356.579,237.437 C351.641,222.201 348.66,206.242 347.636,189.561 L340.771,194.349 L310.419,194.349 C304.879,208.44 297.291,218.497 287.656,224.519 L306.354,225.423 L296.599,235.721 L260.556,234.456 L272.57,223.616 L281.603,224.158 C285.699,221.147 289.191,216.916 292.082,211.466 C294.973,206.016 299.278,195.463 304.999,179.805 L307.709,172.308 C313.25,157.192 318.519,146.186 323.518,139.291 C328.516,132.396 335.321,126.72 343.933,122.264 C334.478,120.517 324.511,119.644 314.033,119.644 C287.355,119.644 274.016,128.647 274.016,146.653 C274.016,152.796 275.461,158.547 278.352,163.907 M347.456,184.593 C346.612,174.114 346.191,165.623 346.191,159.119 C346.191,155.807 346.251,153.097 346.372,150.989 L347.094,140.511 C347.576,133.344 348.238,127.864 349.082,124.07 C337.278,131.297 327.582,146.051 319.995,168.333 C317.827,174.777 316.562,178.48 316.201,179.444 L314.123,184.593 L347.456,184.593 M420.533,237.437 C421.557,230.21 422.069,219.401 422.069,205.008 C422.069,176.342 420.789,155.385 418.23,142.137 C415.67,128.888 411.59,122.264 405.99,122.264 C402.376,122.264 398.884,124.161 395.511,127.954 C392.139,131.748 390.031,136.145 389.188,141.143 C386.719,140.601 385.484,139.517 385.484,137.891 C385.484,131.748 388.45,125.35 394.382,118.695 C400.314,112.041 406.02,108.714 411.5,108.714 C417.04,108.714 421.241,110.837 424.101,115.082 C426.962,119.328 429.446,127.141 431.554,138.523 C434.745,155.446 436.341,174.957 436.341,197.058 L436.432,203.382 L449.439,178.089 L455.221,166.978 L463.622,150.447 C468.439,141.053 471.661,133.525 473.287,127.864 L487.108,114.676 C486.686,119.253 486.476,123.167 486.476,126.419 C486.476,136.656 488.553,153.007 492.708,175.469 L493.792,181.341 L495.599,190.735 C496.804,197.179 498.008,204.134 499.212,211.602 C500.959,208.35 502.043,206.242 502.464,205.279 L509.781,190.103 L518.634,172.127 C525.981,156.891 529.654,144.997 529.654,136.446 C529.654,130.664 527.276,126.268 522.518,123.257 L535.797,108.714 C541.939,112.749 545.011,117.596 545.011,123.257 C545.011,130.785 538.688,146.984 526.041,171.856 C523.933,176.011 521.404,181.07 518.453,187.032 L514.569,194.981 L510.594,204.104 L505.355,215.848 C504.933,216.871 503.97,219.28 502.464,223.074 L488.553,237.798 L488.192,233.824 C486.987,221.177 484.729,206.212 481.417,188.929 L480.333,183.509 L478.797,175.469 C477.653,169.628 476.9,165.352 476.539,162.642 L474.823,150.266 C474.702,149.363 474.401,147.255 473.919,143.943 L461.725,168.152 L456.756,177.998 C447.663,195.824 440.707,210.669 435.89,222.532 L420.533,237.437 Z" style="stroke:none;fill-rule:nonzero;fill:#ffffff;fill-opacity:1;"/>
        </g>
        <g id="Shape8">
            <desc shapeID="8" type="2" basicInfo-basicType="0" basicInfo-roundedRectRadius="12" basicInfo-polygonSides="6" basicInfo-starPoints="5" bounding="rect(-232.5,-50.5,465,101)" text="TECH" font-familyName="Helvetica" font-pixelSize="175" font-bold="0" font-underline="0" font-alignment="1" strokeStyle="0" markerStart="0" markerEnd="0" shadowEnabled="0" shadowOffsetX="0" shadowOffsetY="2" shadowBlur="4" shadowOpacity="160" blurEnabled="0" blurRadius="4" transform="matrix(1,0,0,1,336.047,514.472)" pers-center="0,0" pers-size="0,0" pers-start="0,0" pers-end="0,0" locked="0" mesh="" flag=""/>
            <path id="shapePath8" d="M202.55,436.197 L202.55,451.151 L160.253,451.151 L160.253,561.722 L142.992,561.722 L142.992,451.151 L100.695,451.151 L100.695,436.197 L202.55,436.197 M219.719,436.197 L311.235,436.197 L311.235,451.578 L236.297,451.578 L236.297,489.688 L305.596,489.688 L305.596,504.215 L236.297,504.215 L236.297,546.768 L312.517,546.768 L312.517,561.722 L219.719,561.722 L219.719,436.197 M424.707,445.34 C433.48,453.714 438.351,463.228 439.319,473.88 L422.742,473.88 C420.862,465.791 417.116,459.382 411.505,454.654 C405.894,449.926 398.019,447.562 387.879,447.562 C375.517,447.562 365.534,451.905 357.929,460.593 C350.324,469.28 346.521,482.596 346.521,500.54 C346.521,515.238 349.953,527.158 356.818,536.301 C363.682,545.444 373.922,550.015 387.537,550.015 C400.069,550.015 409.611,545.202 416.162,535.575 C419.637,530.505 422.229,523.839 423.938,515.579 L440.515,515.579 C439.034,528.796 434.135,539.875 425.818,548.819 C415.849,559.586 402.405,564.969 385.486,564.969 C370.903,564.969 358.655,560.554 348.743,551.724 C335.698,540.046 329.175,522.017 329.175,497.635 C329.175,479.121 334.074,463.94 343.872,452.091 C354.468,439.216 369.08,432.779 387.708,432.779 C403.601,432.779 415.934,436.966 424.707,445.34 M461.617,436.197 L478.792,436.197 L478.792,488.065 L544.075,488.065 L544.075,436.197 L561.251,436.197 L561.251,561.722 L544.075,561.722 L544.075,503.018 L478.792,503.018 L478.792,561.722 L461.617,561.722 L461.617,436.197 Z" style="stroke:none;fill-rule:nonzero;fill:#000000;fill-opacity:1;"/>
        </g>
    </g>
</svg>
